<?xml version="1.0" standalone="no"?>
<!DOCTYPE svg PUBLIC "-//W3C//DTD SVG 20010904//EN"
 "http://www.w3.org/TR/2001/REC-SVG-20010904/DTD/svg10.dtd">
<svg version="1.0" xmlns="http://www.w3.org/2000/svg"
 width="1024.000000pt" height="1024.000000pt" viewBox="0 0 1024.000000 1024.000000"
 preserveAspectRatio="xMidYMid meet">

<g transform="translate(0.000000,1024.000000) scale(0.100000,-0.100000)"
fill="#000000" stroke="none">
<path d="M4949 8260 c-72 -53 -186 -132 -344 -238 -99 -66 -178 -121 -470
-327 -82 -58 -217 -153 -300 -210 -82 -57 -186 -131 -231 -164 -45 -33 -93
-67 -108 -75 l-28 -14 69 -45 c37 -24 95 -65 127 -91 65 -51 72 -53 95 -32 33
30 43 4 56 -137 l12 -136 85 -128 c46 -70 111 -172 143 -226 32 -54 62 -100
66 -103 5 -3 9 176 9 399 0 222 3 445 7 496 l6 92 61 48 c101 80 738 513 810
551 18 9 32 11 41 5 8 -6 130 -91 272 -189 142 -99 314 -218 381 -265 68 -47
143 -102 165 -122 l42 -37 2 -448 c2 -514 8 -634 29 -634 16 0 26 20 80 160
35 90 128 260 142 260 4 0 24 16 45 35 l39 36 -6 67 c-7 67 6 262 19 281 7 13
38 -1 72 -32 l23 -20 73 75 c40 41 94 87 121 103 l49 29 -34 28 c-19 16 -184
130 -368 254 -183 124 -375 256 -425 293 -50 37 -154 112 -231 166 -77 55
-193 137 -258 184 -176 128 -228 161 -251 161 -12 -1 -51 -23 -87 -50z"/>
<path d="M5890 8001 c0 -33 4 -71 9 -84 11 -28 153 -137 272 -209 l76 -46 7
82 c3 44 6 134 6 199 l0 117 -185 0 -185 0 0 -59z"/>
<path d="M7295 7425 c-5 -2 -55 -17 -110 -35 -104 -32 -216 -92 -253 -135 -61
-70 -100 -207 -88 -307 7 -57 50 -138 72 -138 12 0 50 90 88 207 32 96 74 138
160 159 l29 7 -6 -72 c-5 -62 -14 -89 -66 -192 -60 -118 -73 -159 -48 -159 22
0 111 46 146 76 52 44 100 127 121 211 22 84 25 153 10 258 -18 127 -20 132
-55 120z"/>
<path d="M4737 7404 c-4 -4 -7 -60 -7 -125 l0 -117 108 -4 c59 -2 110 -2 115
0 4 2 7 57 7 123 l0 119 -87 0 c-49 0 -97 3 -108 6 -11 3 -24 2 -28 -2z"/>
<path d="M5117 7403 c-4 -3 -7 -60 -7 -126 l0 -120 68 6 c37 4 88 7 115 7 l47
0 0 120 0 120 -108 0 c-60 0 -112 -3 -115 -7z"/>
<path d="M2813 6920 c8 -199 17 -244 73 -349 61 -116 124 -192 308 -371 141
-138 253 -271 406 -485 35 -49 119 -155 185 -235 67 -80 152 -185 190 -235 83
-109 277 -335 334 -390 l41 -39 0 44 c0 25 3 95 6 155 l6 110 -78 97 c-224
275 -513 639 -592 746 -73 99 -112 148 -213 267 -129 153 -238 304 -279 389
-39 80 -54 146 -35 152 6 1 34 -26 63 -62 29 -35 56 -63 60 -61 4 1 7 -1 7 -5
0 -4 30 -38 67 -75 37 -38 101 -108 143 -158 242 -287 319 -380 388 -470 196
-259 375 -487 417 -533 16 -18 33 -39 37 -46 4 -8 9 58 10 146 1 89 4 181 8
205 6 42 5 45 -38 86 -25 23 -61 67 -80 97 -19 30 -58 82 -87 115 -279 321
-311 365 -445 631 -41 82 -89 167 -107 188 -18 22 -33 45 -34 53 -1 7 -15 24
-31 37 -15 13 -41 36 -58 50 -16 14 -33 26 -37 26 -12 0 -9 -49 3 -72 10 -19
9 -20 -12 -15 -13 4 -63 7 -111 7 -81 0 -88 2 -88 20 0 15 -7 20 -27 20 -16 0
-41 9 -58 20 -16 11 -40 20 -52 20 -13 0 -23 4 -23 9 0 11 -49 22 -132 28 -45
3 -68 9 -68 17 0 8 -14 12 -36 12 l-36 -1 5 -145z"/>
<path d="M4734 6991 c-2 -2 -4 -57 -4 -122 l0 -118 115 -3 115 -3 0 126 0 125
-111 0 c-61 -1 -112 -3 -115 -5z"/>
<path d="M5117 6994 c-4 -4 -7 -61 -7 -126 l0 -118 115 0 116 0 -3 123 -3 122
-106 3 c-58 1 -108 -1 -112 -4z"/>
<path d="M6556 6954 c-38 -47 -86 -185 -80 -233 20 -144 68 -269 132 -341 l38
-43 61 114 c71 134 79 163 63 232 -19 82 -146 308 -172 306 -7 0 -26 -16 -42
-35z"/>
<path d="M7160 6651 c-36 -10 -91 -24 -124 -31 -47 -10 -67 -20 -101 -54 -51
-51 -119 -164 -139 -229 l-14 -47 41 -1 c134 -3 227 11 288 42 80 40 169 171
194 286 6 29 4 34 -20 43 -34 13 -47 12 -125 -9z"/>
<path d="M4988 6462 c-89 -93 -122 -221 -82 -318 20 -49 88 -140 114 -154 17
-9 26 -4 65 37 25 26 60 77 78 113 42 84 43 163 3 243 -25 51 -97 137 -114
137 -5 0 -34 -26 -64 -58z"/>
<path d="M6280 6479 c-41 -52 -80 -159 -80 -225 0 -127 102 -384 153 -384 7 0
43 67 81 149 75 164 76 176 36 282 -28 77 -119 219 -139 219 -10 0 -33 -18
-51 -41z"/>
<path d="M7868 6486 c-81 -21 -176 -73 -210 -113 -20 -24 -51 -13 -104 37 -29
28 -62 50 -73 50 -30 0 -67 -57 -81 -123 -24 -119 40 -321 119 -374 41 -28 54
-21 76 46 20 60 97 197 133 234 30 32 73 57 97 57 42 0 -7 -142 -104 -300
l-52 -85 31 -3 c38 -4 111 30 162 76 48 43 112 158 133 240 11 43 15 95 13
170 -3 106 -3 107 -28 109 -14 1 -64 -8 -112 -21z"/>
<path d="M2250 6348 c1 -35 52 -304 74 -391 33 -129 60 -199 104 -272 90 -150
172 -230 391 -381 135 -94 295 -243 514 -479 66 -71 211 -222 321 -335 111
-113 258 -267 326 -343 124 -137 125 -138 161 -133 54 9 162 43 184 60 20 14
20 14 0 36 -11 12 -47 44 -81 71 -33 26 -130 121 -214 211 -144 152 -387 408
-612 642 -53 56 -124 135 -158 176 -35 41 -138 152 -229 245 -151 153 -174
182 -240 294 -92 155 -100 178 -45 133 21 -18 80 -63 129 -101 85 -65 266
-247 827 -831 118 -124 228 -241 244 -260 15 -19 71 -80 124 -135 193 -202
320 -371 320 -428 0 -12 11 -12 69 -2 38 6 82 20 98 31 24 16 117 54 176 71
25 8 21 16 -21 40 -149 84 -592 518 -872 853 -57 69 -143 170 -190 225 -95
110 -251 317 -350 465 -75 112 -147 202 -198 248 -87 78 -203 144 -301 172
-25 6 -56 17 -70 23 -23 9 -122 36 -201 53 -14 3 -55 9 -91 14 -58 7 -110 18
-171 36 -11 3 -18 0 -18 -8z"/>
<path d="M6830 6176 c-93 -15 -161 -47 -196 -93 -29 -38 -154 -261 -154 -275
0 -13 136 -9 221 6 97 17 152 42 211 95 59 53 110 151 116 227 l4 54 -63 -1
c-35 -1 -98 -7 -139 -13z"/>
<path d="M4557 6154 c-14 -14 -7 -180 9 -235 22 -73 67 -160 106 -205 50 -56
141 -111 206 -124 31 -6 67 -13 80 -16 21 -4 22 -1 22 58 0 166 -51 300 -144
385 -48 44 -115 80 -262 139 -5 3 -13 1 -17 -2z"/>
<path d="M5400 6095 c-181 -91 -251 -171 -271 -308 -10 -70 -12 -188 -3 -210
6 -17 67 -8 129 18 109 45 233 191 267 314 18 66 26 252 11 250 -5 -1 -64 -30
-133 -64z"/>
<path d="M7179 6068 c-17 -24 -35 -54 -41 -68 -55 -141 -15 -356 87 -469 32
-35 40 -39 53 -29 8 7 41 66 73 132 76 153 78 188 19 303 -40 77 -122 173
-147 173 -7 0 -27 -19 -44 -42z"/>
<path d="M5952 6008 c-68 -104 -84 -149 -83 -241 0 -126 60 -285 139 -369 14
-16 30 -28 34 -28 5 0 24 33 42 73 18 39 47 94 65 121 24 40 31 61 31 102 0
72 -31 165 -85 254 -24 41 -45 80 -45 86 0 14 -39 64 -49 64 -4 0 -26 -28 -49
-62z"/>
<path d="M7840 5805 c-25 -7 -73 -18 -107 -25 -140 -28 -196 -77 -287 -253
-65 -125 -62 -131 52 -122 173 14 265 45 335 113 44 42 117 156 143 221 17 44
17 44 -5 63 -27 21 -67 22 -131 3z"/>
<path d="M6608 5685 c-2 -3 -44 -12 -91 -21 -140 -26 -161 -46 -297 -275 -21
-36 -42 -78 -45 -92 l-7 -27 83 6 c162 11 256 39 335 99 46 35 100 122 129
208 36 108 36 107 -38 107 -35 0 -66 -2 -69 -5z"/>
<path d="M6890 5574 c-36 -57 -60 -132 -60 -185 0 -60 28 -175 56 -230 25 -50
99 -139 114 -139 16 0 140 252 140 285 0 46 -34 140 -80 216 -46 78 -57 88
-104 96 -33 5 -36 3 -66 -43z"/>
<path d="M4550 5487 c0 -207 86 -362 250 -451 48 -26 137 -56 169 -56 11 0 12
24 9 128 -6 160 -26 217 -106 303 -47 51 -75 70 -177 120 -67 32 -127 59 -133
59 -8 0 -12 -32 -12 -103z"/>
<path d="M5400 5525 c-189 -96 -247 -160 -269 -302 -13 -83 -15 -243 -3 -243
24 0 129 33 170 54 96 48 197 184 236 315 20 68 23 242 4 240 -7 -1 -69 -30
-138 -64z"/>
<path d="M5761 5418 c-14 -39 -22 -231 -15 -358 8 -139 7 -139 82 -22 65 102
102 176 102 205 0 32 -70 138 -112 171 -42 32 -46 32 -57 4z"/>
<path d="M7449 5276 c-125 -28 -166 -56 -217 -143 -41 -71 -102 -189 -102
-198 0 -10 229 -5 282 6 76 16 163 65 210 118 40 46 130 219 122 233 -11 17
-199 6 -295 -16z"/>
<path d="M2226 5098 c8 -116 63 -352 102 -438 96 -213 222 -352 423 -466 114
-64 184 -93 333 -135 177 -50 199 -59 241 -99 59 -56 72 -60 202 -60 135 -1
383 29 383 45 0 18 -104 136 -171 195 -64 57 -323 334 -451 482 -175 205 -329
365 -380 395 -117 71 -306 122 -527 143 -62 6 -122 15 -132 20 -10 6 -20 10
-24 10 -3 0 -3 -42 1 -92z m536 -390 c129 -97 167 -124 258 -178 73 -44 184
-128 362 -277 139 -116 208 -186 195 -199 -3 -4 -34 3 -68 15 -35 12 -74 21
-88 21 -37 0 -90 34 -232 146 -69 54 -196 150 -282 213 -164 119 -213 164
-246 230 -20 38 -39 121 -28 121 3 0 61 -42 129 -92z"/>
<path d="M6269 5156 c-2 -3 -45 -16 -94 -31 -107 -31 -131 -51 -200 -168 -88
-151 -127 -207 -167 -238 -21 -17 -45 -44 -53 -60 -16 -30 -20 -69 -7 -69 25
0 277 91 293 106 11 10 40 48 64 84 24 36 77 102 118 148 71 79 147 193 147
219 0 9 -16 13 -48 13 -27 0 -51 -2 -53 -4z"/>
<path d="M6658 5093 c-18 -14 -88 -81 -156 -147 -153 -150 -223 -244 -153
-206 12 6 21 8 21 6 0 -3 11 -1 25 4 39 15 217 41 360 54 l130 11 9 43 c7 32
5 50 -5 70 -19 36 -168 192 -185 192 -7 0 -27 -12 -46 -27z"/>
<path d="M4545 4944 c-14 -118 16 -242 84 -342 77 -114 165 -170 290 -186 l53
-7 -4 134 c-3 126 -5 137 -35 198 -51 102 -117 160 -246 214 -60 25 -115 45
-122 45 -8 0 -15 -21 -20 -56z"/>
<path d="M5403 4936 c-139 -70 -180 -105 -229 -192 -37 -65 -53 -149 -54 -273
l0 -64 53 6 c31 4 83 22 127 44 149 76 250 242 250 412 0 73 -8 132 -19 130
-3 0 -61 -29 -128 -63z"/>
<path d="M6785 4531 c-103 -11 -259 -39 -435 -78 -154 -34 -188 -44 -330 -90
-41 -14 -86 -26 -100 -28 -25 -4 -167 -52 -225 -76 -16 -7 -41 -14 -55 -16
-14 -2 -34 -10 -45 -17 -11 -7 -38 -19 -60 -26 -22 -7 -49 -17 -60 -23 -11 -6
-25 -12 -31 -13 -6 -1 -27 -9 -45 -17 -70 -30 -142 -57 -155 -57 -8 0 -14 -4
-14 -8 0 -5 -26 -16 -57 -26 -32 -10 -76 -27 -97 -37 -22 -11 -49 -19 -61 -19
-12 0 -30 -8 -41 -17 -10 -10 -32 -19 -49 -21 -16 -2 -43 -12 -58 -23 -16 -12
-31 -18 -34 -15 -7 6 -146 -44 -154 -56 -3 -5 -28 -15 -55 -23 -27 -7 -74 -23
-104 -34 -30 -12 -63 -21 -73 -21 -11 0 -15 -5 -11 -11 4 -8 -1 -9 -16 -4 -15
5 -20 4 -16 -4 4 -6 2 -11 -3 -11 -6 0 -11 5 -11 11 0 7 -10 5 -25 -5 -13 -9
-35 -16 -49 -16 -13 0 -31 -6 -38 -13 -7 -7 -22 -14 -33 -14 -11 -1 -38 -6
-60 -12 -195 -49 -296 -68 -480 -90 -82 -10 -177 -24 -210 -31 -39 -8 -165
-13 -366 -14 l-306 -1 40 -60 c22 -33 53 -77 69 -97 17 -21 26 -38 21 -38 -4
0 -3 -4 2 -8 6 -4 30 -34 55 -67 24 -33 68 -88 97 -123 29 -34 53 -66 53 -70
0 -4 56 -65 124 -136 l123 -130 59 2 c126 5 406 34 544 58 364 62 698 165
1210 373 629 256 902 352 1260 441 300 75 523 104 801 102 l206 -1 5 42 c3 23
26 96 51 163 25 66 64 181 85 255 22 74 49 157 60 185 l21 52 -22 7 c-31 9
-817 15 -902 6z m-1275 -741 c-8 -5 -22 -9 -30 -9 -10 0 -8 3 5 9 27 12 43 12
25 0z m-410 -160 c-20 -13 -33 -13 -25 0 3 6 14 10 23 10 15 0 15 -2 2 -10z
m-75 -30 c-28 -12 -37 -12 -30 0 3 6 16 10 28 9 21 0 21 -1 2 -9z m-45 -14 c0
-2 -13 -9 -30 -15 -35 -12 -41 -5 -7 9 25 10 37 12 37 6z m-95 -36 c-3 -5 -12
-10 -18 -10 -7 0 -6 4 3 10 19 12 23 12 15 0z"/>
<path d="M7045 3529 c-192 -17 -665 -122 -915 -202 -94 -31 -306 -107 -385
-140 -33 -14 -116 -48 -185 -75 -69 -28 -186 -76 -260 -107 -123 -51 -202 -83
-420 -167 -89 -35 -237 -85 -300 -103 -25 -7 -85 -25 -135 -40 -130 -40 -323
-83 -423 -95 -48 -6 -122 -15 -165 -22 l-78 -11 48 -32 c264 -176 653 -325
1003 -385 67 -11 142 -28 167 -36 36 -12 55 -13 87 -5 22 5 96 19 164 31 416
70 890 263 1227 499 151 106 409 345 534 496 90 109 225 292 270 368 l23 37
-84 -1 c-46 -1 -123 -5 -173 -10z"/>
<path d="M7924 3511 c3 -5 36 -14 73 -21 38 -7 115 -26 172 -42 57 -16 105
-27 108 -25 7 8 -103 47 -187 66 -114 26 -173 34 -166 22z"/>
</g>
</svg>
